<svg xmlns="http://www.w3.org/2000/svg" xmlns:xlink="http://www.w3.org/1999/xlink" viewBox="0 0 200.8184 162.9525"><defs><style>.cls-1{fill:url(#Gradient_44);}.cls-2{fill:url(#Gradient_44-2);}.cls-3{fill:url(#Gradient_44-3);}.cls-4{fill:url(#Gradient_44-4);}.cls-5{fill:url(#Gradient_44-5);}</style><linearGradient id="Gradient_44" x1="-0.331" y1="62.2123" x2="200.1774" y2="262.7206" gradientUnits="userSpaceOnUse"><stop offset="0" stop-color="#ff6000"/><stop offset="1" stop-color="#80f"/></linearGradient><linearGradient id="Gradient_44-2" x1="139.9546" y1="102.0887" x2="154.1351" y2="116.2692" xlink:href="#Gradient_44"/><linearGradient id="Gradient_44-3" x1="-615.2731" y1="-623.7299" x2="811.4723" y2="803.0156" xlink:href="#Gradient_44"/><linearGradient id="Gradient_44-4" x1="42.8058" y1="-61.5165" x2="185.0571" y2="80.7347" xlink:href="#Gradient_44"/><linearGradient id="Gradient_44-5" x1="12.8674" y1="7.9901" x2="177.6662" y2="172.789" xlink:href="#Gradient_44"/></defs><title>Threeco</title><g id="Layer_2" data-name="Layer 2"><g id="Layer_1-2" data-name="Layer 1"><path class="cls-1" d="M53.7391,109.2134q-12.5427-12.56-25.8568-24.3479A324.2184,324.2184,0,0,0,0,62.5433,324.2141,324.2141,0,0,0,22.3223,90.4255Q34.0964,103.7538,46.67,116.2823q12.5573,12.5451,25.8664,24.3383a327.998,327.998,0,0,0,27.8727,22.3319A327.9837,327.9837,0,0,0,78.0773,135.08Q66.3041,121.7507,53.7391,109.2134Z"/><path class="cls-2" d="M172.936,84.8655Q159.6078,96.64,147.0793,109.2134q-12.5451,12.5571-24.3382,25.8663a327.964,327.964,0,0,0-22.3319,27.8728,328.0138,328.0138,0,0,0,27.8727-22.3319q13.3291-11.7733,25.8663-24.3383,12.56-12.5427,24.3479-25.8568a324.2334,324.2334,0,0,0,22.3223-27.8822A324.22,324.22,0,0,0,172.936,84.8655Z"/><path class="cls-3" d="M105.4077,91.9525q.0118-17.75-1.067-35.5a324.2353,324.2353,0,0,0-3.9315-35.5,324.1863,324.1863,0,0,0-3.9315,35.5q-1.099,17.75-1.0671,35.5.0087,17.75,1.0806,35.5a327.9951,327.9951,0,0,0,3.918,35.5,327.9948,327.9948,0,0,0,3.9179-35.5Q105.4272,109.7024,105.4077,91.9525Z"/><path class="cls-4" d="M105.8271,51.8076c.308,1.4373.75,2.8466,1.1288,4.2644.464,1.3931,1.0307,2.7528,1.5511,4.1229A42.6585,42.6585,0,0,0,118.5823,74.37a43.2013,43.2013,0,0,0,14.6858,8.8444,42.6123,42.6123,0,0,0,56.6411-40.1712,38.3439,38.3439,0,0,1-3.21,15.2392,37.6081,37.6081,0,0,1-8.9876,12.5637,38.0592,38.0592,0,0,1-13.0686,7.77,37.5841,37.5841,0,1,1-.0063-71.13,38.12,38.12,0,0,1,13.0692,7.76,37.6051,37.6051,0,0,1,8.9916,12.5586,38.3246,38.3246,0,0,1,3.2113,15.2385A42.5744,42.5744,0,0,0,133.2577,2.847a43.0021,43.0021,0,0,0-14.6928,8.852,42.5285,42.5285,0,0,0-10.07,14.1877,43.2514,43.2514,0,0,0-3.5834,17.1566l.2455,4.4028C105.3442,48.9038,105.598,50.3558,105.8271,51.8076Z"/><path class="cls-5" d="M13.6649,67.8249a46.7182,46.7182,0,0,0,8.9664,9.4593A46.0484,46.0484,0,0,0,33.93,83.566a45.332,45.332,0,0,0,12.522,2.535l3.1737-.0227a26.0985,26.0985,0,0,0,3.1477-.1832,42.23,42.23,0,0,0,6.1618-1.1616A37.7585,37.7585,0,0,0,78.9539,71.556a45.7572,45.7572,0,0,1-10.0915,5.671,41.2653,41.2653,0,0,1-10.8525,2.68,39.008,39.008,0,0,1-5.4851.1977c-1.823-.0335-3.6209-.354-5.4036-.542a43.3771,43.3771,0,0,1-10.15-3.2473,43.08,43.08,0,0,1-8.722-5.8266,41.9473,41.9473,0,0,1-6.692-7.9243,39.1247,39.1247,0,0,1-4.2051-9.376,39.5588,39.5588,0,0,1-1.4445-10.1449,39.7225,39.7225,0,0,1,1.4368-10.1472,39.4337,39.4337,0,0,1,4.2034-9.38,42.069,42.069,0,0,1,6.693-7.9283A42.9543,42.9543,0,0,1,36.966,9.759,43.3384,43.3384,0,0,1,47.12,6.51c1.7836-.188,3.5821-.5051,5.4058-.5413a39.355,39.355,0,0,1,5.4868.1992,41.29,41.29,0,0,1,10.8538,2.685,45.7148,45.7148,0,0,1,10.0878,5.6781A37.7845,37.7845,0,0,0,58.9326,1.3654a41.9242,41.9242,0,0,0-6.16-1.16A25.88,25.88,0,0,0,49.6258.0215L46.4531,0A45.3611,45.3611,0,0,0,33.935,2.533,46.1345,46.1345,0,0,0,22.64,8.8124a46.6129,46.6129,0,0,0-8.9654,9.4555,46.3824,46.3824,0,0,0-5.77,11.7785A48.3813,48.3813,0,0,0,5.9107,43.0433,48.5265,48.5265,0,0,0,7.8969,56.0424,46.6529,46.6529,0,0,0,13.6649,67.8249Z"/></g></g></svg>